<svg xmlns="http://www.w3.org/2000/svg" xmlns:xlink="http://www.w3.org/1999/xlink" x="0px" y="0px" width="64px" height="64px" viewBox="0 0 64 64"><g stroke-width="2" transform="translate(0, 0)"><line data-cap="butt" data-color="color-2" fill="none" stroke="#444444" stroke-width="2" stroke-miterlimit="10" x1="11" y1="34" x2="11" y2="54" stroke-linecap="butt" stroke-linejoin="miter"></line>
<polyline data-color="color-2" fill="none" stroke="#444444" stroke-width="2" stroke-linecap="square" stroke-miterlimit="10" points="
	19,46 11,54 3,46 " stroke-linejoin="miter"></polyline>
<line data-cap="butt" data-color="color-2" fill="none" stroke="#444444" stroke-width="2" stroke-miterlimit="10" x1="11" y1="26" x2="11" y2="6" stroke-linecap="butt" stroke-linejoin="miter"></line>
<polyline data-color="color-2" fill="none" stroke="#444444" stroke-width="2" stroke-linecap="square" stroke-miterlimit="10" points="
	19,14 11,6 3,14 " stroke-linejoin="miter"></polyline>
<line fill="none" stroke="#444444" stroke-width="2" stroke-linecap="square" stroke-miterlimit="10" x1="34" y1="32" x2="34" y2="38" stroke-linejoin="miter"></line>
<path fill="none" stroke="#444444" stroke-width="2" stroke-linecap="square" stroke-miterlimit="10" d="M41,30v-2.5
	c0-1.933,1.567-3.5,3.5-3.5h0c1.933,0,3.5,1.567,3.5,3.5V30" stroke-linejoin="miter"></path>
<path fill="none" stroke="#444444" stroke-width="2" stroke-linecap="square" stroke-miterlimit="10" d="M48,31v-1.5
	c0-1.933,1.567-3.5,3.5-3.5h0c1.933,0,3.5,1.567,3.5,3.5V32" stroke-linejoin="miter"></path>
<path fill="none" stroke="#444444" stroke-width="2" stroke-linecap="square" stroke-miterlimit="10" d="M55,31.5
	c0-1.933,1.567-3.5,3.5-3.5h0c1.847,0,3.266,1.636,3.005,3.465L58,56H34c0-3.833-7-9.333-7-14v-7c0-1.657,1.343-3,3-3l4,0V11.5
	C34,9.567,35.567,8,37.5,8h0c1.933,0,3.5,1.567,3.5,3.5V29" stroke-linejoin="miter"></path></g></svg>