<svg xmlns="http://www.w3.org/2000/svg" clip-rule="evenodd" fill-rule="evenodd" height="512" viewBox="0 0 512 512" width="512"><g id="Layer_x0020_1"><path d="m211 421c-54 0-108-20-149-61-82-83-82-217 0-299 82-82 216-82 298 0 82 83 82 217 0 299-41 41-95 61-149 61zm0-43c-43 0-86-16-118-49-65-65-65-171 0-237 65-65 171-65 237 0 65 66 65 172 0 237-33 33-76 49-119 49zm-108-275c-60 59-60 156 0 216 59 59 156 59 216 0 59-60 59-157 0-216-59-60-156-60-216 0zm218 162h-28-55-54-55-27c-5 0-8-3-8-8 0-4 3-7 8-7h20v-64c0-4 3-8 7-8 5 0 8 4 8 8v64h39v-102c0-4 4-7 8-7s7 3 7 7v102h40v-64c0-4 3-8 7-8 5 0 8 4 8 8v64h39v-106c0-4 4-7 8-7s7 3 7 7v106h21c4 0 7 3 7 7 0 5-3 8-7 8z"></path><path d="m467 512c-11 0-22-5-30-14l-101-100c12-8 24-18 34-28 11-11 21-23 29-35l100 101c20 21 14 46-1 62-8 8-18 13-29 14 0 0-1 0-2 0z"></path></g></svg>