<svg xmlns="http://www.w3.org/2000/svg" id="Capa_1" height="512" viewBox="0 0 512 512" width="512"><path d="m386 302c-33.084 0-60-26.916-60-60s26.916-60 60-60 60 26.916 60 60-26.916 60-60 60z"></path><path d="m497 512h-482c-8.284 0-15-6.716-15-15v-30c0-8.284 6.716-15 15-15h482c8.284 0 15 6.716 15 15v30c0 8.284-6.716 15-15 15z"></path><path d="m437.69 315.633c-14.637 10.306-32.468 16.367-51.69 16.367s-37.053-6.061-51.69-16.367c-13.121 7.452-24.481 17.653-33.31 29.807v31.56c0 15.569-7.949 29.313-20 37.396v7.604h210v-15c0-39.117-21.504-73.302-53.31-91.367z"></path><path d="m256 212h-240c-8.284 0-15 6.716-15 15v150c0 8.284 6.716 15 15 15h69.188l-10 30h121.623l-10-30h69.189c8.284 0 15-6.716 15-15v-150c0-8.284-6.716-15-15-15z"></path><path d="m336 0h-220c-19.299 0-35 15.701-35 35v80c0 19.299 15.701 35 35 35h125.458l56.222 37.481c2.51 1.673 5.411 2.519 8.321 2.519 2.427 0 4.859-.588 7.077-1.775 4.877-2.61 7.922-7.693 7.922-13.225v-25h15c19.299 0 35-15.701 35-35v-80c0-19.299-15.701-35-35-35zm-40 90h-140c-8.284 0-15-6.716-15-15s6.716-15 15-15h140c8.284 0 15 6.716 15 15s-6.716 15-15 15z"></path></svg>