<svg xmlns="http://www.w3.org/2000/svg" id="Layer_5" height="512" viewBox="0 0 64 64" width="512"><g><path d="m60.702 23.393 2.226-14.833c.048-.322.072-.65.072-.977 0-3.63-2.953-6.583-6.584-6.583h-28.832c-3.631 0-6.584 2.953-6.584 6.583 0 .326.024.655.072.977l.967 6.44h-1.677c-7.368 0-13.362 5.994-13.362 13.361 0 5.093 2.83 9.672 7.386 11.951l.614.307v1.556c-7.097 1.552-12.559 7.521-13.415 14.79l-.709 6.035h33.124 3.124 20.157l-3.544-14.173c4.344-2.631 7.263-7.388 7.263-12.827 0-3.079-.921-5.995-2.66-8.504 1.234-1.008 2.114-2.445 2.362-4.103zm-37.651-15.129c-.034-.225-.051-.453-.051-.681 0-2.527 2.057-4.583 4.584-4.583h28.832c2.527 0 4.584 2.056 4.584 4.583 0 .228-.017.455-.051.68l-2.226 14.833c-.332 2.226-2.281 3.904-4.532 3.904h-3.81l-3.934 7.868c-.099.197-.447.115-.447-.104v-7.764h-17.808c-.137-.284-.273-.559-.406-.819-.053-.103-.116-.197-.177-.294 2.503-.514 4.391-2.734 4.391-5.387 0-.339-.035-.669-.094-.992l7.094-7.094 7 7 7-7 3.542 3.542 2.832-11.331-11.33 2.833 3.542 3.542-5.586 5.586-7-7-7.903 7.903c-.984-1.497-2.676-2.489-4.597-2.489h-2.438zm25.185 27.5.491-.982c.175.38.273.793.273 1.218 0 1.654-1.346 3-3 3s-3-1.346-3-3c0-.868.381-1.665 1-2.218v.982c0 1.233 1.003 2.236 2.236 2.236.852 0 1.618-.474 2-1.236zm-4.236-6.462v2.133c-1.798.784-3 2.561-3 4.564 0 2.757 2.243 5 5 5s5-2.243 5-5c0-1.211-.451-2.363-1.248-3.269l.949-1.898c1.451 1.318 2.299 3.176 2.299 5.168 0 3.859-3.141 7-7 7s-7-3.141-7-7c0-3.13 2.084-5.83 5-6.698zm3.205 21.637 1.515 6.061h-5.44l1.515-6.061c.399.032.798.061 1.205.061s.806-.029 1.205-.061zm-4.425 8.061h6.44l.5 2h-7.44zm-2.56 2h-2.94l2.805-11.22c.868.374 1.779.664 2.722.87zm-3.877-4.492c-1.028-7.06-6.397-12.814-13.343-14.333v-1.192c1.022-.095 1.972-.539 2.707-1.274.834-.835 1.293-1.943 1.293-3.123v-1.864l3-1v-.721c0-1.193-.406-2.624-.94-4.001h3.69c-1.143 2.152-1.75 4.537-1.75 7 0 5.439 2.919 10.196 7.263 12.827zm-17.343 4.078-1.877-1.877 1.632-5.709h.491l1.632 5.709zm7.007-33.493c1.074 2.098 1.746 3.908 1.937 5.206l-2.944.981v3.306c0 .646-.251 1.252-.707 1.708s-1.063.707-1.707.707l-3.586-.001v2l2 .001v1.666l-2 2.666-2-2.666v-8.081l-1.707-1.707c-.189-.189-.293-.441-.293-.708v-.171c0-.551.448-1 1-1h1v-3c0-1.103.897-2 2-2h4 1.224c.754 0 1.437.419 1.783 1.093zm-10.425 17.016 2.098 2.798-1.916 1.915-.516-4.643c.11-.026.222-.047.334-.07zm3.741 6.891h-.646l-.646-1.617.969-.969.969.969zm.997-4.094 2.098-2.798c.111.023.223.044.334.07l-.516 4.643zm31.636-38.364 4.67-1.167-1.168 4.669zm-42.956 19.819c0-6.264 5.097-11.361 11.361-11.361h6.139c1.93 0 3.5 1.57 3.5 3.5s-1.57 3.5-3.5 3.5h-2.276-1.224-4c-2.206 0-4 1.794-4 4v1.171c-1.164.413-2 1.525-2 2.829v.171c0 .801.313 1.555.879 2.122l1.121 1.121v2.943c-3.703-1.983-6-5.775-6-9.996zm-5.429 28.838c.669-5.676 4.519-10.444 9.73-12.426l.935 8.404 2.256-2.256.452 1.131-2.068 7.238 1.71 1.71h-7.469l.877-7.89-1.988-.22-.901 8.11h-3.981zm30.429 3.801h-3.105l-.901-8.11-1.988.221.877 7.889h-7.468l1.709-1.709-2.068-7.238.452-1.131 2.256 2.256.935-8.404c5.211 1.982 9.062 6.75 9.73 12.426l.447 3.8zm20.719 0h-2.939l-2.587-10.35c.943-.205 1.854-.496 2.722-.87zm4.281-25c0 7.168-5.832 13-13 13s-13-5.832-13-13c0-2.497.717-4.903 2.065-7h5.292c-2.056 1.66-3.357 4.196-3.357 7 0 4.963 4.037 9 9 9s9-4.037 9-9c0-2.747-1.249-5.298-3.368-7h2.559c.85 0 1.666-.175 2.422-.479 1.559 2.199 2.387 4.766 2.387 7.479z"></path><path d="m26 5h2v2h-2z"></path><path d="m30 5h6v2h-6z"></path><path d="m26 9h2v2h-2z"></path><path d="m30 9h6v2h-6z"></path></g></svg>