<svg xmlns="http://www.w3.org/2000/svg" id="Layer_1" viewBox="0 0 512 512"><path d="m77.525 21.045c2.069-3.588 6.655-4.818 10.245-2.745l30.087 17.371c3.587 2.071 4.816 6.658 2.745 10.245-1.389 2.406-3.91 3.751-6.502 3.751-1.272 0-2.562-.324-3.743-1.006l-30.087-17.371c-3.587-2.071-4.816-6.658-2.745-10.245zm320.374 28.621c1.272 0 2.562-.324 3.743-1.006l30.087-17.371c3.587-2.071 4.816-6.658 2.745-10.245-2.07-3.587-6.66-4.817-10.245-2.745l-30.087 17.371c-3.587 2.071-4.816 6.658-2.745 10.245 1.389 2.406 3.91 3.751 6.502 3.751zm-222.564 172.722c-27.751-32.371-42.42-68.217-42.42-103.663 0-31.263 12.83-60.703 36.127-82.896 23.153-22.056 54.002-34.424 86.866-34.829.061-.001.123-.001.184 0 32.864.404 63.714 12.773 86.866 34.829 23.298 22.193 36.128 51.633 36.128 82.896 0 35.443-14.669 71.289-42.42 103.663-3.707 4.323-7.321 11.097-10.044 18.692 6.013 4.463 9.918 11.614 9.918 19.66 0 6.587-2.62 12.57-6.867 16.974 4.247 4.404 6.867 10.387 6.867 16.974 0 13.495-10.979 24.473-24.474 24.473h-.669c-5.536 25.464-28.441 43.965-55.739 43.965-14.308 0-27.991-5.201-38.528-14.644-8.78-7.869-14.736-18.102-17.201-29.321h-.714c-13.495 0-24.474-10.979-24.474-24.473 0-6.587 2.62-12.57 6.867-16.974-4.247-4.404-6.867-10.387-6.867-16.974 0-8.299 4.156-15.642 10.493-20.069-2.705-7.429-6.258-14.036-9.899-18.283zm146.205 72.3c0-5.224-4.25-9.474-9.474-9.474h-112.852c-5.224 0-9.474 4.25-9.474 9.474s4.25 9.473 9.474 9.473h112.852c5.224 0 9.474-4.25 9.474-9.473zm0-33.947c0-5.224-4.25-9.473-9.474-9.473h-112.852c-5.224 0-9.474 4.25-9.474 9.473s4.25 9.474 9.474 9.474h112.852c5.224-.001 9.474-4.251 9.474-9.474zm-173.624-142.016c0 31.815 13.42 64.285 38.809 93.9 4.947 5.771 9.503 14.196 12.861 23.642h33.56l-30.09-127.672c-.77-3.265.722-6.644 3.653-8.274 2.928-1.631 6.587-1.118 8.957 1.257l40.334 40.44 40.335-40.44c2.375-2.38 6.042-2.888 8.974-1.249 2.933 1.641 4.415 5.033 3.629 8.301l-30.732 127.637h33.86c.116 0 .23.007.345.009 3.359-9.451 7.918-17.879 12.867-23.651 25.388-29.617 38.808-62.087 38.808-93.899-.001-55.883-48.477-101.948-108.086-102.726-59.609.778-108.084 46.843-108.084 102.725zm336.146 164.211c0-4.142-3.358-7.5-7.5-7.5h-111.644c-4.143 0-7.5 3.358-7.5 7.5 0 55.922-45.496 101.419-101.419 101.419-55.922 0-101.418-45.497-101.418-101.419 0-4.142-3.357-7.5-7.5-7.5h-111.644c-4.143 0-7.5 3.358-7.5 7.5v26.066c0 11.582 9.422 21.004 21.004 21.004h24.593c11.929 0 21.775 6.579 26.341 17.6 4.564 11.021 2.254 22.636-6.182 31.07l-17.389 17.39c-3.957 3.957-6.137 9.231-6.137 14.852s2.18 10.896 6.136 14.853l36.863 36.863c3.956 3.956 9.23 6.135 14.852 6.135s10.896-2.179 14.852-6.135l17.391-17.39c8.436-8.435 20.051-10.744 31.07-6.18 11.021 4.565 17.6 14.412 17.6 26.34v24.593c0 11.582 9.422 21.004 21.004 21.004h52.131c11.582 0 21.004-9.422 21.004-21.004v-24.593c0-11.928 6.58-21.775 17.601-26.34 11.02-4.563 22.636-2.254 31.069 6.18l17.391 17.391c3.956 3.957 9.23 6.135 14.852 6.135s10.896-2.179 14.853-6.135l36.862-36.862c3.956-3.957 6.136-9.231 6.136-14.853s-2.18-10.896-6.136-14.852l-17.39-17.391c-8.436-8.435-10.746-20.05-6.182-31.07 4.565-11.021 14.413-17.6 26.341-17.6h24.593c11.582 0 21.005-9.422 21.005-21.004zm-373.705-83.422-30.086 17.371c-3.587 2.071-4.816 6.658-2.745 10.245 1.39 2.406 3.91 3.751 6.502 3.751 1.272 0 2.562-.324 3.743-1.006l30.086-17.371c3.587-2.071 4.816-6.658 2.745-10.245-2.072-3.588-6.66-4.818-10.245-2.745zm-52.941-67.927h34.741c4.143 0 7.5-3.358 7.5-7.5s-3.357-7.5-7.5-7.5h-34.741c-4.143 0-7.5 3.358-7.5 7.5s3.357 7.5 7.5 7.5zm354.927-7.501c0 4.142 3.357 7.5 7.5 7.5h34.74c4.143 0 7.5-3.358 7.5-7.5s-3.357-7.5-7.5-7.5h-34.74c-4.142 0-7.5 3.358-7.5 7.5zm-18.201 88.417 30.087 17.371c1.182.682 2.471 1.006 3.743 1.006 2.592 0 5.113-1.345 6.502-3.751 2.071-3.587.842-8.174-2.745-10.245l-30.087-17.371c-3.589-2.072-8.175-.843-10.245 2.745-2.071 3.588-.842 8.174 2.745 10.245z"></path></svg>