<svg xmlns="http://www.w3.org/2000/svg" clip-rule="evenodd" fill-rule="evenodd" stroke-linejoin="round" stroke-miterlimit="2" viewBox="0 0 510 510"><g id="Artboard11"><path d="m94.344 407.321-23.212-23.212 16.539-37.198c-10.922-17.663-18.911-37.011-23.779-57.232l-37.947-14.605v-61.976l37.947-14.605c4.868-20.284 12.857-39.569 23.779-57.294l-16.539-37.198 43.814-43.814 37.198 16.539c17.725-10.922 37.011-18.911 57.232-23.717l14.667-38.009h61.976l14.605 38.009c20.221 4.806 39.507 12.795 57.232 23.717l37.198-16.539 43.814 43.814-16.477 37.198c10.922 17.725 18.911 37.01 23.717 57.294l37.947 14.605v61.976l-37.947 14.605c-4.806 20.221-12.857 39.507-23.717 57.232l16.477 37.198-23.213 23.213c-12.486-18.762-28.17-35.213-46.274-48.573 29.411-29.332 47.611-69.898 47.611-114.71 0-89.464-72.543-161.914-162.008-161.914-89.464 0-161.914 72.45-161.914 161.914 0 44.808 18.174 85.371 47.557 114.702-18.108 13.361-33.795 29.815-46.283 48.58zm160.657-258.983c49.384 0 89.418 40.034 89.418 89.418 0 49.385-40.034 89.419-89.418 89.419-49.385 0-89.419-40.034-89.419-89.419 0-49.384 40.034-89.418 89.419-89.418zm-76.772 206.324c.094.207.197.411.309.61l35.804 63.804c1.284 2.288 3.609 3.801 6.221 4.049 2.37.225 4.704-.618 6.38-2.274l-8.428 40.858c-.515 2.498.191 5.091 1.902 6.983l23.794 26.307c-71.005-.002-139.654-.004-159.403-.008-1.438 0-2.807-.621-3.755-1.704-.947-1.082-1.382-2.521-1.191-3.947 8.312-59.496 46.219-109.509 98.367-134.678zm87.558 140.337 23.795-26.307c1.711-1.892 2.417-4.485 1.902-6.983l-8.428-40.858c1.676 1.656 4.01 2.499 6.38 2.274 2.612-.248 4.937-1.761 6.221-4.049l35.802-63.804c.112-.2.215-.403.309-.61 52.15 25.169 90.06 75.182 98.38 134.677.191 1.428-.245 2.87-1.194 3.954-.95 1.085-2.321 1.707-3.762 1.707-19.749 0-88.4 0-159.405-.001zm21.482-154.887-32.27 24.994-32.269-24.994c10.462-1.929 21.248-2.937 32.269-2.937s21.807 1.008 32.27 2.937zm-38.715 55.163 6.445-7.642 6.446 7.643 13.549 65.692-19.995 22.106-19.994-22.106zm-13.496-8.814c-.034.039-.067.079-.1.118l-12.312 14.599-25.678-45.758c4.497-1.646 9.085-3.106 13.752-4.372l32.787 25.394zm39.983.119c-.033-.04-.066-.079-.1-.119l-8.45-10.019s32.788-25.394 32.788-25.394c4.667 1.266 9.254 2.726 13.751 4.371 0 0-25.677 45.759-25.677 45.759z"></path></g></svg>