<svg xmlns="http://www.w3.org/2000/svg" id="Layer_1" height="512" viewBox="0 0 500 500" width="512"><path clip-rule="evenodd" d="m181.42 206.26c17.66 0 33.65 7.16 45.22 18.73s18.73 27.56 18.73 45.22-7.16 33.65-18.73 45.22-27.56 18.73-45.22 18.73-33.65-7.16-45.22-18.73-18.73-27.56-18.73-45.22 7.16-33.65 18.73-45.22 27.56-18.73 45.22-18.73zm35.32 28.63c-9.04-9.04-21.53-14.63-35.32-14.63s-26.28 5.59-35.32 14.63-14.63 21.53-14.63 35.32c0 13.8 5.59 26.28 14.63 35.32s21.53 14.63 35.32 14.63c13.8 0 26.28-5.59 35.32-14.63s14.63-21.53 14.63-35.32-5.59-26.28-14.63-35.32zm95.4 81.7-29.04 37.84c-1.37 1.8-3.45 2.74-5.55 2.75v.02h-124.72c-3.54 0 1.3-.02-1.01-.03-10.24-.08-59.62-.46-76.85 47.6l-28.99 80.86h33.92l23.06-70.39c1.19-3.67 5.14-5.68 8.8-4.48 3.11 1.01 5.02 3.99 4.81 7.11l-.07 68.14h117.42v-62.91c0-9.32 3.8-17.78 9.93-23.91s14.59-9.93 23.91-9.93h16.99c11.65 0 16.24-6.02 22.45-14.19l1.46-1.92 28.58-37.25c4.41-5.75 3.97-12.27.97-17.32-1.19-2-2.77-3.79-4.62-5.24-1.82-1.43-3.83-2.49-5.91-3.06-4.99-1.38-10.78.1-15.54 6.31zm-38.02 26.6h-121.29c-4.1 0 .6.03-.96.02-11.93-.09-69.46-.53-90.03 56.84l-32.34 90.21c-1.3 3.62.59 7.62 4.21 8.91.78.28 1.57.41 2.35.41v.03h48.89c3.27 0 6.01-2.24 6.78-5.26l10.84-33.1-.03 31.74c0 3.85 3.12 6.97 6.97 6.97v.03h131.4c3.87 0 7-3.13 7-7v-69.91c0-5.46 2.23-10.42 5.82-14.01 3.6-3.6 8.55-5.82 14.01-5.82h16.99c18.55 0 24.92-8.37 33.55-19.71l1.46-1.92 28.58-37.25c8.41-10.96 7.58-23.34 1.9-32.9-1.09-1.84-2.36-3.57-3.78-5.16 2.35-.96 4.54-2.44 6.57-4.4 3.26-3.18 6.01-7.65 8.08-13.28l6.65-18.05h1.89c9.5 0 15.31-7.46 17.61-17.01.76-3.15 1.14-6.47 1.14-9.71s-.38-6.56-1.14-9.71c-1.56-6.45-4.71-11.95-9.52-14.84 14.63-20.68 30.02-42.99 30.02-69.81 0-22.48-9.11-42.83-23.84-57.56s-35.08-23.84-57.56-23.84-42.83 9.11-57.56 23.84-23.84 35.08-23.84 57.56c0 26.71 15.28 49.26 29.81 69.93-4.7 2.92-7.78 8.35-9.32 14.71-.76 3.15-1.14 6.47-1.14 9.71s.38 6.56 1.14 9.71c2.31 9.55 8.11 17.01 17.61 17.01h1.89l6.65 18.05c2.07 5.62 4.82 10.1 8.08 13.28 1.27 1.23 2.61 2.27 4 3.12-.9.95-1.78 1.98-2.63 3.09zm61.87-165.63v39.57h-13.66v-39.57zm-13.66-14v-10.53c0-6.75-2.76-12.89-7.2-17.33s-10.58-7.2-17.33-7.2-12.89 2.76-17.33 7.2-7.2 10.58-7.2 17.33 2.76 12.89 7.2 17.33 10.58 7.2 17.33 7.2h10.53v39.57h-18.12c-1.04-1.48-1.81-2.59-2.59-3.69-13.72-19.48-28.68-40.74-28.68-63.94 0-18.61 7.55-35.47 19.74-47.67 12.2-12.2 29.05-19.74 47.67-19.74 18.61 0 35.47 7.54 47.67 19.74s19.74 29.05 19.74 47.67c0 23.05-14.68 43.8-28.3 63.06l-3.23 4.57h-12.23v-39.57h8.75c6.75 0 12.89-2.76 17.33-7.2s7.2-10.58 7.2-17.33-2.76-12.89-7.2-17.33-10.58-7.2-17.33-7.2-12.89 2.76-17.33 7.2-7.2 10.58-7.2 17.33v10.53zm-24.53-21.07c2.89 0 5.52 1.19 7.43 3.1s3.1 4.54 3.1 7.43v10.53h-10.53c-2.89 0-5.52-1.19-7.43-3.1s-3.1-4.54-3.1-7.43 1.19-5.52 3.1-7.43 4.54-3.1 7.43-3.1zm60.94 0c2.89 0 5.52 1.19 7.43 3.1s3.1 4.54 3.1 7.43-1.19 5.52-3.1 7.43-4.54 3.1-7.43 3.1h-10.53v-10.53c0-2.89 1.19-5.52 3.1-7.43s4.54-3.1 7.43-3.1zm10.91 88.64c1.78 0 3.2 2.76 4.05 6.29.47 1.94.7 4.14.7 6.43s-.23 4.49-.7 6.43c-.85 3.53-2.27 6.29-4.05 6.29h-6.72-.05-73.08-6.76c-1.78 0-3.2-2.76-4.05-6.29-.47-1.94-.7-4.14-.7-6.43s.23-4.49.7-6.43c.85-3.53 2.27-6.29 4.05-6.29zm-16.79 39.44-4.87 13.24c-1.35 3.66-2.94 6.38-4.69 8.08-1.16 1.13-2.36 1.72-3.55 1.72h-26.8c-1.18 0-2.38-.59-3.55-1.72-1.75-1.71-3.35-4.43-4.69-8.08l-4.87-13.24zm-31.56-263.58c0-3.85 3.12-6.97 6.97-6.97s6.97 3.12 6.97 6.97v29.09c0 3.85-3.12 6.97-6.97 6.97s-6.97-3.12-6.97-6.97zm142.64 128.7c3.85 0 6.97 3.12 6.97 6.97s-3.12 6.97-6.97 6.97h-29.09c-3.85 0-6.97-3.12-6.97-6.97s3.12-6.97 6.97-6.97zm-44.69-93.92c2.73-2.73 7.17-2.73 9.9 0s2.73 7.17 0 9.9l-20.57 20.57c-2.73 2.73-7.17 2.73-9.9 0s-2.73-7.17 0-9.9zm-226.65 107.89c-3.87 0-7-3.13-7-7s3.13-7 7-7h29.09c3.87 0 7 3.13 7 7s-3.13 7-7 7zm34.78-97.99c-2.73-2.73-2.73-7.17 0-9.9s7.17-2.73 9.9 0l20.57 20.57c2.73 2.73 2.73 7.17 0 9.9s-7.17 2.73-9.9 0z" fill-rule="evenodd"></path></svg>