<svg xmlns="http://www.w3.org/2000/svg" id="Solid" viewBox="0 0 64 64" width="512" height="512"><circle cx="26" cy="36.74" r="7.5"></circle><path d="M32,29.3828a9.3524,9.3524,0,0,1,7.1321-2.0686,7.5,7.5,0,1,0-14.2642,0A9.3524,9.3524,0,0,1,32,29.3828Z"></path><path d="M14,27.24a9.4537,9.4537,0,0,1,6,2.1426,9.4933,9.4933,0,0,1,2.9155-1.6185,9.4491,9.4491,0,0,1,1.1883-8.0378,7.4835,7.4835,0,0,0-11.476,7.6245A9.4794,9.4794,0,0,1,14,27.24Z"></path><path d="M39.8962,19.7265a9.4491,9.4491,0,0,1,1.1883,8.0378A9.4933,9.4933,0,0,1,44,29.3828a9.3029,9.3029,0,0,1,7.3722-2.0318,7.4924,7.4924,0,0,0-11.476-7.6245Z"></path><path d="M26,55.3574a9.4015,9.4015,0,0,1-8.4665,1.8064,7.4939,7.4939,0,0,0,14.8955.3145c-.1432.0064-.2842.0217-.429.0217A9.4531,9.4531,0,0,1,26,55.3574Z"></path><path d="M38,55.3574a9.4762,9.4762,0,0,1-3.5454,1.81,9.447,9.447,0,0,1-1.2478,4.0959,7.4968,7.4968,0,0,0,13.26-4.099A9.4015,9.4015,0,0,1,38,55.3574Z"></path><path d="M32,55.5a7.4736,7.4736,0,0,0,7.26-9.3533A9.3113,9.3113,0,0,1,32,44.0977a9.3113,9.3113,0,0,1-7.26,2.049A7.4736,7.4736,0,0,0,32,55.5Z"></path><path d="M24.5865,53.925a9.4308,9.4308,0,0,1-1.7923-8.2534A9.4965,9.4965,0,0,1,20,44.0977a9.3113,9.3113,0,0,1-7.26,2.049A7.4881,7.4881,0,0,0,24.5865,53.925Z"></path><path d="M50,46.24a9.4536,9.4536,0,0,1-6-2.1425,9.4965,9.4965,0,0,1-2.7942,1.5739,9.4308,9.4308,0,0,1-1.7923,8.2534A7.4821,7.4821,0,0,0,51.26,46.1467,9.5017,9.5017,0,0,1,50,46.24Z"></path><path d="M50,29.24a7.4593,7.4593,0,0,0-4.5867,1.575,9.4559,9.4559,0,0,1,0,11.85A7.497,7.497,0,1,0,50,29.24Z"></path><path d="M18.5864,42.6652a9.4559,9.4559,0,0,1,0-11.85,7.5,7.5,0,1,0,0,11.85Z"></path><path d="M45.5,36.74a7.4914,7.4914,0,0,0-12.0867-5.925,9.4559,9.4559,0,0,1,0,11.85A7.4913,7.4913,0,0,0,45.5,36.74Z"></path><path d="M32,15.5a9.451,9.451,0,0,1,2.95.4749A12.2688,12.2688,0,0,0,37,9.59c0-4.1982-2.8892-7.7922-4.2751-9.2747a.9914.9914,0,0,0-1.45,0C29.8892,1.7976,27,5.3916,27,9.59a12.2688,12.2688,0,0,0,2.05,6.3851A9.451,9.451,0,0,1,32,15.5Z"></path><path d="M36.7826,16.8052a9.55,9.55,0,0,1,1.8246,1.383,9.439,9.439,0,0,1,4.425-1.6392c.196-.1659.3993-.3194.5839-.5041,2.9686-2.9685,3.467-7.5528,3.5353-9.581a.9913.9913,0,0,0-1.0252-1.0252A16.8427,16.8427,0,0,0,38.7691,7.316,11.8124,11.8124,0,0,1,39,9.59,14.0959,14.0959,0,0,1,36.7826,16.8052Z"></path><path d="M20.9678,16.549a9.439,9.439,0,0,1,4.425,1.6392,9.55,9.55,0,0,1,1.8246-1.383A14.0959,14.0959,0,0,1,25,9.59a11.8045,11.8045,0,0,1,.231-2.2738,16.8414,16.8414,0,0,0-7.3572-1.8773.9912.9912,0,0,0-1.0251,1.0251c.0683,2.0283.5666,6.6126,3.5353,9.5812C20.5685,16.23,20.7719,16.3831,20.9678,16.549Z"></path></svg>