<svg xmlns="http://www.w3.org/2000/svg" id="Layer_1" height="512" viewBox="0 0 100 100" width="512"><path d="m28.6 28.3c10.9-.7 16.5 3 21 6 2 1.3 3.8 2.5 5.8 3.2 1 .3 2 .5 3 .5 2.1 0 4.3-.7 6.2-2.1.6-.4.7-1.2.3-1.8s-1.2-.7-1.8-.3c-2.2 1.6-4.7 2-7 1.3-1.7-.5-3.3-1.6-5.2-2.8-4.2-2.8-9.8-6.5-19.9-6.5 3.4-4 12.3-12.2 28.2-11 5.1.4 8.9 5.2 8.6 10.8 0 .3 0 .6-.1 1-.1.8-.4 1.7-.7 2.5-5.3-4.7-12.4-7.3-21.2-7.7-.7 0-1.3.5-1.3 1.2s.5 1.3 1.2 1.3c13.7.5 22.5 6.5 27 18.1.2.5.7.8 1.2.8.2 0 .3 0 .5-.1.7-.3 1-1 .7-1.7-1.6-4-3.6-7.4-6.2-10.2.6-1.3 1.1-2.6 1.3-4 .1-.4.1-.9.1-1.2.4-6.9-4.5-13-10.9-13.5-22.2-1.7-31.7 13.6-32.1 14.3-.2.4-.2.9 0 1.3.4.4.8.7 1.3.6z"></path><path d="m39.5 88c.5 0 .9-.3 1.2-.7.2-.4.2-.9-.1-1.3-6.1-9.1-5.7-15.8-5.3-21.2.1-2.3.3-4.6-.2-6.6-.7-3.2-2.8-5.8-6-7.2-.7-.3-1.4 0-1.7.6s0 1.4.6 1.7c2.4 1.1 4.1 3 4.6 5.4.4 1.7.3 3.7.1 5.9-.3 5-.7 11.7 4.3 20.5-5.1-.9-16.7-4.4-23.6-18.9-2.2-4.6.1-10.3 5-12.8.3-.2.6-.3.9-.4.8-.3 1.6-.5 2.5-.6-1.4 7-.1 14.4 4 22.2.2.4.7.7 1.1.7.2 0 .4 0 .6-.1.6-.3.9-1.1.5-1.7-6.4-12.1-5.7-22.7 2.2-32.5.4-.6.4-1.4-.2-1.8s-1.4-.4-1.8.2c-2.7 3.3-4.6 6.8-5.7 10.5-1.4.1-2.8.4-4.2.9-.4.2-.8.3-1.1.5-6.2 3.1-9 10.3-6.2 16.2 9.7 19.9 27.7 20.5 28.5 20.5z"></path><path d="m63.2 65.5c-2.4 2.2-3.6 5.3-3.2 8.8.1.7.7 1.2 1.4 1.2.7-.1 1.2-.7 1.2-1.4-.3-2.7.6-5.1 2.4-6.7 1.3-1.2 3-2 5.1-3.1 4.5-2.2 10.5-5.3 15.5-14 1.8 4.9 4.4 16.8-4.6 29.9-2.9 4.2-8.9 5.1-13.6 2-.3-.2-.5-.4-.8-.6-.7-.5-1.3-1.2-1.8-1.8 6.8-2.2 12.5-7.1 17.2-14.5.4-.6.2-1.4-.4-1.8s-1.4-.2-1.8.4c-7.3 11.6-16.9 16.3-29.2 14.4-.7-.1-1.4.4-1.5 1.1s.4 1.4 1.1 1.5c1.9.3 3.7.4 5.5.4 2.2 0 4.4-.2 6.4-.7.8 1.2 1.7 2.2 2.8 3.1.3.3.7.5 1 .8 2.3 1.5 4.8 2.2 7.3 2.2 3.9 0 7.6-1.7 9.8-5 12.6-18.4 4.1-34.3 3.7-34.9-.2-.4-.7-.7-1.2-.7s-.9.3-1.1.7c-4.7 9.8-10.7 12.8-15.5 15.2-2.1 1.1-4.1 2.1-5.7 3.5z"></path></svg>