<svg xmlns="http://www.w3.org/2000/svg" id="solid" viewBox="0 0 32 32"><path d="m3 10.75h-2c-.4141 0-.75-.3359-.75-.75s.3359-.75.75-.75h2c.4141 0 .75.3359.75.75s-.3359.75-.75.75z"></path><path d="m4.9287 3.9355c-.1338 0-.2695-.0361-.3926-.1113l-1.7041-1.0488c-.3525-.2168-.4619-.6787-.2451-1.0322.2168-.3506.6768-.4609 1.0322-.2451l1.7041 1.0488c.3525.2168.4619.6787.2451 1.0322-.1416.2295-.3877.3564-.6396.3564z"></path><path d="m3.2266 18.6133c-.252 0-.498-.127-.6396-.3564-.2168-.3535-.1074-.8154.2451-1.0322l1.7041-1.0488c.3545-.2178.8154-.1055 1.0322.2451.2168.3535.1074.8154-.2451 1.0322l-1.7041 1.0488c-.123.0752-.2588.1113-.3926.1113z"></path><path d="m31 10.75h-2c-.4141 0-.75-.3359-.75-.75s.3359-.75.75-.75h2c.4141 0 .75.3359.75.75s-.3359.75-.75.75z"></path><path d="m27.0713 3.9355c-.252 0-.498-.127-.6396-.3564-.2168-.3535-.1074-.8154.2451-1.0322l1.7041-1.0488c.3545-.2158.8154-.1055 1.0322.2451.2168.3535.1074.8154-.2451 1.0322l-1.7041 1.0488c-.123.0752-.2588.1113-.3926.1113z"></path><path d="m28.7734 18.6133c-.1338 0-.2695-.0361-.3926-.1113l-1.7041-1.0488c-.3525-.2168-.4619-.6787-.2451-1.0322.2168-.3506.6777-.4629 1.0322-.2451l1.7041 1.0488c.3525.2168.4619.6787.2451 1.0322-.1416.2295-.3877.3564-.6396.3564z"></path><path d="m9.26 9.25h-2.22c.35-4.37 3.84-7.85 8.21-8.21v2.96c0 .41.34.75.75.75h.5c.41 0 .75.34.75.75s-.34.75-.75.75h-.5c-.41 0-.75.34-.75.75v2.25h-1.51c-.13-1.12-1.08-2-2.24-2s-2.11.88-2.24 2z"></path><path d="m15.25 17.74v1.76h-3.27c-.1-.88-.55-1.7-1.27-2.22-2.06-1.49-3.46-3.85-3.67-6.53h2.96c.41 0 .75-.34.75-.75v-.5c0-.41.34-.75.75-.75s.75.34.75.75v.5c0 .41.34.75.75.75h2.25v2.51c-1.12.13-2 1.08-2 2.24s.88 2.11 2 2.24z"></path><path d="m24.96 10.75c-.21 2.67-1.6 5.01-3.64 6.5-.73.54-1.19 1.36-1.3 2.25h-3.27v-2.5c0-.41-.34-.75-.75-.75h-.5c-.41 0-.75-.34-.75-.75s.34-.75.75-.75h.5c.41 0 .75-.34.75-.75v-3.25h1.51c.13 1.12 1.08 2 2.24 2s2.11-.88 2.24-2z"></path><path d="m19 9.25h-2.25v-1.51c1.12-.13 2-1.08 2-2.24s-.88-2.11-2-2.24v-2.23c4.32.36 7.85 3.92 8.21 8.22h-2.96c-.41 0-.75.34-.75.75v.5c0 .41-.34.75-.75.75s-.75-.34-.75-.75v-.5c0-.41-.34-.75-.75-.75z"></path><rect height="4" rx="1" width="12" x="10" y="21"></rect><path d="m20 26.5v.5c0 2.21-1.79 4-4 4s-4-1.79-4-4v-.5z"></path></svg>