<svg xmlns="http://www.w3.org/2000/svg" id="Capa_1" height="512" viewBox="0 0 512 512" width="512"><g><circle cx="366" cy="160" r="15"></circle><circle cx="401" cy="30" r="15"></circle><circle cx="146" cy="160" r="15"></circle><circle cx="111" cy="30" r="15"></circle><path d="m482.534 42c-25.002 0-46.261 17.877-50.549 42.509l-18.295 105.085c12.532 2.55 24.477 8.662 34.177 18.363 26.318 26.318 26.318 69.141 0 95.459l-69.653 69.654c-5.858 5.858-15.355 5.858-21.213 0s-5.858-15.355 0-21.213l69.654-69.654c14.621-14.621 14.621-38.412 0-53.033-5.163-5.163-11.47-8.493-18.112-10.01l-.016-.018c-12.16-2.779-25.435.557-34.906 10.028l-73.796 73.796c-17.943 17.943-27.825 41.8-27.825 67.175v126.859c0 8.284 6.716 15 15 15h130c8.284 0 15-6.716 15-15v-107.218l58.032-58.033c14.166-14.166 21.968-33 21.968-53.034v-207.249c0-16.248-13.219-29.466-29.466-29.466z"></path><path d="m212.175 302.966-73.796-73.796c-9.47-9.47-22.742-12.806-34.901-10.029l-.021.019c-6.642 1.517-12.949 4.848-18.112 10.01-14.621 14.621-14.621 38.412 0 53.033l69.655 69.653c5.858 5.858 5.858 15.355 0 21.213s-15.355 5.858-21.213 0l-69.653-69.654c-26.318-26.318-26.318-69.141 0-95.459 9.701-9.701 21.645-15.813 34.177-18.363l-18.296-105.084c-4.288-24.632-25.547-42.509-50.549-42.509-16.247 0-29.466 13.218-29.466 29.466v207.249c0 20.034 7.802 38.869 21.968 53.034l58.032 58.033v107.218c0 8.284 6.716 15 15 15h130c8.284 0 15-6.716 15-15v-126.859c0-25.375-9.882-49.232-27.825-67.175z"></path><g><g><g><g><g><path d="m317.802 220.211c-2.387 0-4.783-.569-6.979-1.723l-54.823-28.822-54.823 28.822c-5.053 2.657-11.177 2.214-15.797-1.142-4.619-3.356-6.933-9.043-5.967-14.671l10.47-61.047-44.353-43.232c-4.088-3.985-5.56-9.946-3.796-15.376 1.765-5.43 6.459-9.388 12.109-10.209l61.294-8.906 27.412-55.542c2.527-5.121 7.742-8.363 13.451-8.363 5.71 0 10.924 3.242 13.451 8.362l27.411 55.542 61.295 8.906c5.65.821 10.345 4.779 12.108 10.209 1.765 5.43.293 11.391-3.796 15.376l-44.353 43.233 10.471 61.047c.965 5.627-1.349 11.315-5.968 14.671-2.612 1.899-5.707 2.865-8.817 2.865z"></path></g></g></g></g></g><g><circle cx="256" cy="250" r="15"></circle></g></g></svg>