<svg xmlns="http://www.w3.org/2000/svg" height="512" viewBox="0 0 32 32" width="512"><g id="team"><path d="m6 17c-2.2055664 0-4-1.7939453-4-4s1.7944336-4 4-4 4 1.7939453 4 4-1.7944336 4-4 4zm1.7700195.6699219c-1.1401367.4404297-2.3999023.4404297-3.5400391 0-.2900391-.1103516-.6201172-.0703125-.8798828.0898438-1.4702148.930664-2.3500976 2.5097656-2.3500976 4.2402343v4c0 .5498047.4501953 1 1 1h5v-5c0-1.5498047.4101563-3.0595703 1.1499023-4.3798828-.1298828-.0205078-.2597656 0-.3798828.0498047zm18.2299805-.6699219c2.2055664 0 4-1.7939453 4-4s-1.7944336-4-4-4-4 1.7939453-4 4 1.7944336 4 4 4zm2.6499023.7597656c-.2597656-.1601563-.5898438-.2001953-.8798828-.0898438-1.1401367.4404297-2.3999023.4404297-3.5400391 0-.1201172-.0498047-.25-.0703125-.3798828-.0498047.7397462 1.3203126 1.1499024 2.8300782 1.1499024 4.3798829v5h5c.5498047 0 1-.4501953 1-1v-4c0-1.7304687-.8798828-3.3095703-2.3500977-4.2402344zm-12.6499023-2.7597656c-2.7568359 0-5-2.2431641-5-5s2.2431641-5 5-5 5 2.2431641 5 5-2.2431641 5-5 5zm7 7c0-2.2304688-1.0698242-4.3300781-2.8701172-5.6396484-.2998047-.2207031-.699707-.25-1.0297852-.0908203-.6699218.3408203-1.3798828.5507812-2.1000976.6503906v5.0800781c0 .5498047-.4501953 1-1 1s-1-.4501953-1-1v-5.0800781c-.7202148-.0996094-1.4301758-.3095703-2.1000977-.6503906-.3300781-.1591797-.7299805-.1298828-1.0297852.0908203-1.8002929 1.3095703-2.8701171 3.4091797-2.8701171 5.6396484v5h14z"></path></g></svg>