<svg xmlns="http://www.w3.org/2000/svg" id="Layer_1" height="512" viewBox="0 0 66 66" width="512"><g><g><path d="m33 17.8c4.2 0 7.6-3.4 7.6-7.7 0-4.2-3.4-7.6-7.6-7.6s-7.6 3.4-7.6 7.6 3.4 7.7 7.6 7.7z"></path></g><g><path d="m38.6 18.9h-11.2c-3.8 0-6.8 3.5-6.8 7.8v19.3c0 .6.4 1 1 1h3.9v13.6c0 1.8 1.4 3.2 3.2 3.2h8.8c1.8 0 3.2-1.5 3.2-3.2v-13.7h3.9c.5 0 1-.4 1-1v-19.3c-.1-4.2-3.2-7.7-7-7.7z"></path></g><g><path d="m48.6 47.7c3.6-3.9 5.5-8.8 5.8-13.8h1.4c-.1-.3-.1-.7-.1-1s0-.7.1-1h-1.4c-.1-5.2-2.1-10.4-5.9-14.6l6.4-6.4c-.5-.4-1-.9-1.4-1.4l-7.2 7.2c-.2.2-.3.4-.3.7s.1.5.3.7c8 8 8 21 0 29-.4.4-.4 1 0 1.4l7.9 7.9c.4-.6.8-1.1 1.4-1.5z"></path></g><g><circle cx="58.5" cy="6.2" r="3.9"></circle></g><g><path d="m59.3 55.7c-2.1 0-3.9 1.7-3.9 3.9 0 2.1 1.7 3.9 3.9 3.9 2.1 0 3.9-1.7 3.9-3.9-.1-2.2-1.8-3.9-3.9-3.9z"></path></g><g><path d="m61.6 29c-2.1 0-3.9 1.7-3.9 3.9 0 2.1 1.7 3.9 3.9 3.9 2.1 0 3.9-1.7 3.9-3.9 0-2.1-1.7-3.9-3.9-3.9z"></path></g><g><path d="m19.5 16.6-7.1-7.2c-.4.6-.9 1.1-1.4 1.4l6.4 6.4c-3.8 4.1-5.7 9.3-5.9 14.6h-1.4c.1.3.1.7.1 1s0 .7-.1 1h1.4c.3 5 2.3 9.9 5.8 13.8l-7.1 7.1c.5.4 1 .9 1.4 1.5l7.9-7.9c.4-.4.4-1 0-1.4-8-8-8-21 0-29 .4-.3.4-.9 0-1.3z"></path></g><g><path d="m6.7 55.7c-2.1 0-3.9 1.7-3.9 3.9 0 2.1 1.7 3.9 3.9 3.9 2.1 0 3.9-1.7 3.9-3.9s-1.7-3.9-3.9-3.9z"></path></g><g><circle cx="7.5" cy="6.2" r="3.9"></circle></g><g><path d="m8.2 32.9c0-2.1-1.7-3.9-3.9-3.9-2.1 0-3.9 1.7-3.9 3.9 0 2.1 1.7 3.9 3.9 3.9s3.9-1.8 3.9-3.9z"></path></g></g></svg>