<svg xmlns="http://www.w3.org/2000/svg" id="Layer_3" viewBox="0 0 27 27" data-name="Layer 3"><rect height="6" rx="1" width="5" x="2" y="17"></rect><rect height="8" rx="1" width="5" x="14" y="15"></rect><rect height="10" rx="1" width="5" x="8" y="13"></rect><rect height="13" rx="1" width="5" x="20" y="10"></rect><path d="m4.001 15a.99435.99435 0 0 0 .55371-.168l5.59329-3.72848 5.53564 1.84521a.9999.9999 0 0 0 1.02336-.24173l5.293-5.29294v.58594a1 1 0 0 0 2 0v-3a1 1 0 0 0 -1-1h-3a1 1 0 0 0 0 2h.58594l-4.85594 4.856-5.41359-1.80473a1.004 1.004 0 0 0 -.8711.1167l-6 4a1 1 0 0 0 .55569 1.83203z"></path></svg>