<svg xmlns="http://www.w3.org/2000/svg" id="level_up" viewBox="0 0 64 64"><path d="m14.22 46.95c.3.1.62.15.99.15 1.43 0 2.68-.91 3.09-2.27l3.71-11.91 4.67 1 1.24 5.16c.34 1.46 1.64 2.48 3.14 2.48.25 0 .5-.03.75-.09.84-.2 1.56-.72 2.01-1.45.45-.74.59-1.6.39-2.44l-1.71-7.14c-.29-1.2-1.26-2.14-2.47-2.4l-6.96-1.49.1-6.03 5.96 2.38c1.65.66 3.54-.14 4.2-1.78.33-.8.32-1.68-.02-2.47s-.97-1.41-1.77-1.73l-10.31-4.13c-.99-.39-2.11-.28-3 .3-.88.59-1.43 1.58-1.44 2.64l-.23 12.91-4.44 14.29c-.26.83-.17 1.7.23 2.46.41.76 1.08 1.32 1.87 1.56z"></path><path d="m21.84 11.14c2.53 0 4.58-2.05 4.58-4.57s-2.05-4.57-4.58-4.57-4.59 2.05-4.59 4.57 2.06 4.57 4.59 4.57z"></path><path d="m54.05 37.42h-11.28c-.56 0-1 .45-1 1v22.58c0 .55.44 1 1 1h11.28c.55 0 1-.45 1-1v-22.58c0-.55-.45-1-1-1z"></path><path d="m37.64 43.4h-11.28c-.55 0-1 .45-1 1v16.6c0 .55.45 1 1 1h11.28c.56 0 1-.45 1-1v-16.6c0-.55-.44-1-1-1z"></path><path d="m21.23 49.39h-11.28c-.55 0-1 .44-1 1v10.61c0 .55.45 1 1 1h11.28c.56 0 1-.45 1-1v-10.61c0-.56-.44-1-1-1z"></path></svg>