<svg xmlns="http://www.w3.org/2000/svg" width="103.1mm" height="27.09mm" viewBox="0 0 292.25 76.8"><title>webtec</title><rect width="76.8" height="76.8" rx="7.3" fill="#1e2657"></rect><path d="M33.62,29.75A4.24,4.24,0,1,0,26,33.45l2.85,5.89-2.74,5.5-7.3-15.09a4.24,4.24,0,1,0-7.63,3.7L22.21,56.31A4.26,4.26,0,0,0,26,58.7h0a4.25,4.25,0,0,0,3.8-2.35L33.5,49,37,56.31a4.23,4.23,0,0,0,3.82,2.39,4.16,4.16,0,0,0,1.84-.42,4.24,4.24,0,0,0,2-5.66Z" transform="translate(-2.41 -3.22)" fill="#fff"></path><path d="M68.22,27.36H59a4.26,4.26,0,0,0-3.82,2.39L47.67,45.3a4.25,4.25,0,0,0,2,5.66,4.17,4.17,0,0,0,1.84.43A4.24,4.24,0,0,0,55.31,49l6.36-13.15h6.55a4.24,4.24,0,0,0,0-8.48Z" transform="translate(-2.41 -3.22)" fill="#fff"></path><path d="M49.7,31.6a4.24,4.24,0,0,0-4.24-4.24H42.85a4.24,4.24,0,0,0,0,8.48h2.61A4.24,4.24,0,0,0,49.7,31.6Z" transform="translate(-2.41 -3.22)" fill="#fff"></path><path d="M138.06,27.55a3.21,3.21,0,0,0-4.3,1.48l-9.22,18.88L115.41,29a3.22,3.22,0,1,0-5.79,2.8l3.4,7L108.47,48,99.31,29a3.22,3.22,0,1,0-5.79,2.8l12,24.84a3.2,3.2,0,0,0,2.88,1.81h0a3.24,3.24,0,0,0,2.88-1.78l5.25-10.53,5.07,10.5a3.21,3.21,0,0,0,2.89,1.81h0a3.22,3.22,0,0,0,2.89-1.8l12.12-24.84A3.21,3.21,0,0,0,138.06,27.55Z" transform="translate(-2.41 -3.22)" fill="#1e2657"></path><path d="M227.79,52a9.21,9.21,0,0,1-8.26-2c-1.68-1.48-2.13-4.95-2.16-6.13l0-10.15h7.06a3.22,3.22,0,0,0,0-6.44h-7.08v-2.1a3.22,3.22,0,0,0-6.44,0V43l.05,1c0,.72.23,7.16,4.34,10.77a15.61,15.61,0,0,0,14,3.44A3.22,3.22,0,1,0,227.79,52Z" transform="translate(-2.41 -3.22)" fill="#1e2657"></path><path d="M167,31.28h0a15.63,15.63,0,0,0-24.73,17.77h0a15.44,15.44,0,0,0,4.1,5.72,15.61,15.61,0,0,0,14,3.44,15.47,15.47,0,0,0,8-4.87,3.22,3.22,0,1,0-4.83-4.25,9.2,9.2,0,0,1-13,.85c-.23-.2-.43-.41-.64-.62l19.39-8.11A3.22,3.22,0,0,0,171.06,37,15.52,15.52,0,0,0,167,31.28Zm-19.5,12.1a9.16,9.16,0,0,1,8.59-9.53c.2,0,.41,0,.61,0a9.18,9.18,0,0,1,6.06,2.28c.22.2.43.41.63.62Z" transform="translate(-2.41 -3.22)" fill="#1e2657"></path><path d="M259,31.28h0a15.63,15.63,0,0,0-24.73,17.77h0a15.63,15.63,0,0,0,26.17,4.29,3.22,3.22,0,0,0-4.84-4.25,9.19,9.19,0,0,1-13,.85c-.23-.2-.43-.41-.63-.62l19.38-8.11A3.22,3.22,0,0,0,263.07,37,15.38,15.38,0,0,0,259,31.28Zm-19.51,12.1a9.18,9.18,0,0,1,8.59-9.53c.21,0,.41,0,.61,0a9.18,9.18,0,0,1,6.06,2.28c.22.2.43.41.64.62Z" transform="translate(-2.41 -3.22)" fill="#1e2657"></path><path d="M191.12,27.22a15.55,15.55,0,0,0-9.2,3V18.85a3.22,3.22,0,0,0-6.43,0V55.27a3.21,3.21,0,0,0,6.41.19,15.63,15.63,0,1,0,9.22-28.24Zm0,24.84a9.2,9.2,0,1,1,9.2-9.2A9.21,9.21,0,0,1,191.12,52.06Z" transform="translate(-2.41 -3.22)" fill="#1e2657"></path><path d="M289.06,49a9.2,9.2,0,1,1,0-12.36,3.22,3.22,0,0,0,4.76-4.33,15.63,15.63,0,1,0,0,21A3.22,3.22,0,1,0,289.06,49Z" transform="translate(-2.41 -3.22)" fill="#1e2657"></path></svg>