<svg xmlns="http://www.w3.org/2000/svg" width="103.14mm" height="27.09mm" viewBox="0 0 292.38 76.79"><title>webtec-white</title><path d="M69.51,0H7.32A7.3,7.3,0,0,0,0,7.3V69.49a7.3,7.3,0,0,0,7.3,7.3H69.51a7.3,7.3,0,0,0,7.3-7.3V7.3A7.3,7.3,0,0,0,69.51,0ZM40.26,55.05a4,4,0,0,1-1.84.42,4.22,4.22,0,0,1-3.82-2.39l-3.49-7.31-3.7,7.35a4.22,4.22,0,0,1-7.59,0l-11-22.85,0-.06a4.24,4.24,0,1,1,7.66-3.64l7.3,15.08,2.74-5.49-2.85-5.89c-.07-.12-.12-.24-.18-.36a4.24,4.24,0,1,1,7.8-3.34l11,22.86h0A4.24,4.24,0,0,1,40.26,55.05Zm.19-22.43a4.24,4.24,0,0,1,0-8.48h2.61a4.24,4.24,0,0,1,0,8.48Zm25.37,0H59.27L52.91,45.77a4.22,4.22,0,0,1-3.8,2.39,4.08,4.08,0,0,1-1.84-.43,4.26,4.26,0,0,1-2-5.66l7.51-15.54a4.27,4.27,0,0,1,3.82-2.39h9.22a4.24,4.24,0,1,1,0,8.48Z" transform="translate(-0.02 0)" fill="#fff"></path><path d="M135.65,24.33a3.2,3.2,0,0,0-4.29,1.47h0l-9.22,18.87L113,25.78a3.22,3.22,0,1,0-5.94,2.5,2.1,2.1,0,0,0,.15.3l3.4,7-4.55,9.19-9.16-19A3.22,3.22,0,0,0,91,28.28c0,.1.09.2.15.3l12,24.83A3.19,3.19,0,0,0,106,55.22h0a3.24,3.24,0,0,0,2.88-1.78l5.24-10.53,5.07,10.5a3.21,3.21,0,0,0,2.89,1.81h0a3.2,3.2,0,0,0,2.89-1.8l12.12-24.83A3.21,3.21,0,0,0,135.65,24.33Z" transform="translate(-0.02 0)" fill="#fff"></path><path d="M225.37,48.77a9.19,9.19,0,0,1-8.26-2c-1.68-1.48-2.13-5-2.16-6.12V30.5H222a3.22,3.22,0,0,0,0-6.44h-7.08V22a3.22,3.22,0,1,0-6.44,0V39.78l0,1c0,.72.23,7.16,4.34,10.77a15.58,15.58,0,0,0,14,3.44,3.22,3.22,0,1,0-.74-6.39A3.45,3.45,0,0,0,225.37,48.77Z" transform="translate(-0.02 0)" fill="#fff"></path><path d="M164.59,28.06h0a15.63,15.63,0,0,0-24.73,17.76h0a15.38,15.38,0,0,0,4.1,5.72,15.55,15.55,0,0,0,22-1.43,3.22,3.22,0,1,0-4.64-4.46l-.19.21a9.19,9.19,0,0,1-13,.87l0,0c-.23-.2-.43-.41-.64-.62L166.88,38a3.23,3.23,0,0,0,1.78-4.2h0A15.47,15.47,0,0,0,164.59,28.06Zm-19.5,12.1a9.16,9.16,0,0,1,8.59-9.53h.61a9.2,9.2,0,0,1,6.06,2.28c.22.2.43.41.63.62Z" transform="translate(-0.02 0)" fill="#fff"></path><path d="M256.58,28.06h0a15.63,15.63,0,0,0-24.73,17.76h0A15.62,15.62,0,0,0,258,50.11a3.22,3.22,0,0,0-4.84-4.25,9.19,9.19,0,0,1-13,.88l0,0c-.23-.2-.43-.41-.63-.62L258.93,38a3.23,3.23,0,0,0,1.72-4.21A15.3,15.3,0,0,0,256.58,28.06Zm-19.51,12.1a9.17,9.17,0,0,1,8.59-9.53h.61a9.2,9.2,0,0,1,6.06,2.28c.22.2.43.41.64.62Z" transform="translate(-0.02 0)" fill="#fff"></path><path d="M188.71,24a15.46,15.46,0,0,0-9.2,3V15.63a3.22,3.22,0,0,0-6.43,0V52a3.21,3.21,0,0,0,6.41.19A15.62,15.62,0,1,0,188.71,24Zm0,24.83a9.2,9.2,0,1,1,9.19-9.19h0A9.2,9.2,0,0,1,188.71,48.83Z" transform="translate(-0.02 0)" fill="#fff"></path><path d="M286.63,45.77a9.2,9.2,0,1,1-.63-13,7.62,7.62,0,0,1,.63.64,3.22,3.22,0,0,0,4.76-4.33,15.62,15.62,0,1,0-1.07,22.07c.37-.34.73-.7,1.07-1.08A3.22,3.22,0,0,0,287,45.41,3.7,3.7,0,0,0,286.63,45.77Z" transform="translate(-0.02 0)" fill="#fff"></path></svg>