<svg xmlns="http://www.w3.org/2000/svg" xmlns:xlink="http://www.w3.org/1999/xlink" id="Capa_1" x="0px" y="0px" viewBox="0 0 511.999 511.999" style="enable-background:new 0 0 511.999 511.999;" xml:space="preserve"><g>	<g>		<g>			<path d="M385.726,0.002H127.086c-2.121-0.015-4.27,0.043-6.421,0.179C76.31,3.057,41.564,41.217,41.564,87.065v281.6    c0,27.879,18.922,51.422,44.601,58.452V496c0,6.128,3.504,11.719,9.016,14.394c2.218,1.078,4.605,1.605,6.98,1.605    c3.532,0,7.032-1.164,9.91-3.433l100.597-79.304h130.925c33.414,0,60.598-27.184,60.598-60.598V133.587h50.245    c4.242,0,8.313-1.684,11.312-4.687c3-3,4.687-7.07,4.687-11.312V84.713C470.436,38.003,432.437,0.002,385.726,0.002z     M343.594,397.262H207.122c-3.594,0-7.082,1.21-9.906,3.433l-79.051,62.32v-49.753c0-8.836-7.164-16-16-16    c-15.77,0-28.602-12.828-28.602-28.597v-281.6c0-29.027,21.598-53.164,49.172-54.945c1.148-0.079,2.293-0.117,3.433-0.117    c0.035,0,0.07,0,0.105,0h0.25c13.379,0.059,25.965,5.039,35.781,14.242c10.753,10.078,16.675,23.742,16.675,38.469v32.875    c0,8.836,7.164,16,16,16h177.21v235.076h0.001C372.191,384.434,359.362,397.262,343.594,397.262z M438.438,101.588h-0.001    H210.981V84.713c0-19.176-6.602-37.82-18.41-52.711h193.155c29.067,0,52.711,23.644,52.711,52.711V101.588z"></path>			<path d="M321.598,182.001H133.599c-6.63,0-12,5.375-12,12s5.371,12,12,12h187.999c6.629,0,12-5.375,12-12    C333.599,187.376,328.227,182.001,321.598,182.001z"></path>			<path d="M321.597,249.002H133.599c-6.629,0-12,5.375-12,12c0,6.625,5.371,12,12,12h187.999c6.629,0,12-5.375,12-12    C333.599,254.377,328.226,249.002,321.597,249.002z"></path>			<path d="M321.597,316.001H133.599c-6.629,0-12,5.375-12,12c0,6.625,5.371,12,12,12h187.999c6.629,0,12-5.375,12-12    C333.597,321.376,328.226,316.001,321.597,316.001z"></path>		</g>	</g></g><g></g><g></g><g></g><g></g><g></g><g></g><g></g><g></g><g></g><g></g><g></g><g></g><g></g><g></g><g></g></svg>