<svg xmlns="http://www.w3.org/2000/svg" height="512" viewBox="0 0 512 512" width="512"><g id="_x30_7_File"><g><path d="m401.773 510.323c17.533 0 31.79-14.258 31.79-31.79v-371.147c0-1.561-.83-4.125-2.328-5.619l-97.855-97.761c-1.44-1.44-3.951-2.328-5.619-2.328h-217.534c-17.533 0-31.79 14.258-31.79 31.79v445.065c0 17.533 14.258 31.79 31.79 31.79zm4.641-410.884h-54.81c-8.763 0-15.895-7.133-15.895-15.895v-54.744c.877.876 69.059 68.994 70.705 70.639zm-312.082 379.093v-445.064c0-8.763 7.133-15.895 15.895-15.895h209.587v65.971c0 17.533 14.258 31.79 31.79 31.79h66.064v363.199c0 8.763-7.133 15.895-15.895 15.895h-291.546c-8.763 0-15.895-7.133-15.895-15.896z"></path><path d="m149.181 430.886h213.638c4.393 0 7.948-3.555 7.948-7.948s-3.555-7.948-7.948-7.948h-213.638c-4.393 0-7.948 3.555-7.948 7.948s3.555 7.948 7.948 7.948z"></path><path d="m149.181 364.107h213.638c4.393 0 7.948-3.555 7.948-7.948s-3.555-7.948-7.948-7.948h-213.638c-4.393 0-7.948 3.555-7.948 7.948 0 4.394 3.555 7.948 7.948 7.948z"></path><path d="m149.181 297.337h213.638c4.393 0 7.948-3.555 7.948-7.948s-3.555-7.948-7.948-7.948h-213.638c-4.393 0-7.948 3.555-7.948 7.948s3.555 7.948 7.948 7.948z"></path><path d="m149.181 230.558h213.638c4.393 0 7.948-3.555 7.948-7.948s-3.555-7.948-7.948-7.948h-213.638c-4.393 0-7.948 3.555-7.948 7.948 0 4.394 3.555 7.948 7.948 7.948z"></path><path d="m149.181 163.78h213.638c4.393 0 7.948-3.555 7.948-7.948s-3.555-7.948-7.948-7.948h-213.638c-4.393 0-7.948 3.555-7.948 7.948s3.555 7.948 7.948 7.948z"></path><path d="m149.181 97.009h106.819c4.393 0 7.948-3.555 7.948-7.948s-3.555-7.948-7.948-7.948h-106.819c-4.393 0-7.948 3.555-7.948 7.948 0 4.394 3.555 7.948 7.948 7.948z"></path></g></g></svg>