<svg xmlns="http://www.w3.org/2000/svg" xmlns:svg="http://www.w3.org/2000/svg" id="svg1950" xml:space="preserve" width="682.66669" height="682.66669" viewBox="0 0 682.66669 682.66669"><defs id="defs1954"><clipPath clipPathUnits="userSpaceOnUse" id="clipPath1964"><path d="M 0,512 H 512 V 0 H 0 Z" id="path1962"></path></clipPath></defs><g id="g1956" transform="matrix(1.3333333,0,0,-1.3333333,0,682.66667)"><g id="g1958"><g id="g1960" clip-path="url(#clipPath1964)"><g id="g1966" transform="translate(395,236)"><path d="m 0,0 c 0,-88.366 -71.635,-160 -160,-160 -88.365,0 -160,71.634 -160,160 0,88.366 71.635,160 160,160 C -71.635,160 0,88.366 0,0 Z" style="fill:none;stroke:#000000;stroke-width:30;stroke-linecap:round;stroke-linejoin:round;stroke-miterlimit:10;stroke-dasharray:none;stroke-opacity:1" id="path1968"></path></g><g id="g1970" transform="translate(235,16)"><path d="m 0,0 c -121.503,0 -220,98.498 -220,220 0,121.502 98.497,220 220,220 v 0 h 262 c 0,-10e-4 -10e-4,10e-4 0,0" style="fill:none;stroke:#000000;stroke-width:30;stroke-linecap:round;stroke-linejoin:round;stroke-miterlimit:10;stroke-dasharray:none;stroke-opacity:1" id="path1972"></path></g><g id="g1974" transform="translate(496.999,456)"><path d="M 0,0 -40,40" style="fill:none;stroke:#000000;stroke-width:30;stroke-linecap:round;stroke-linejoin:round;stroke-miterlimit:10;stroke-dasharray:none;stroke-opacity:1" id="path1976"></path></g><g id="g1978" transform="translate(496.999,456)"><path d="M 0,0 -40,-40" style="fill:none;stroke:#000000;stroke-width:30;stroke-linecap:round;stroke-linejoin:round;stroke-miterlimit:10;stroke-dasharray:none;stroke-opacity:1" id="path1980"></path></g><g id="g1982" transform="translate(365,236)"><path d="M 0,0 H 30" style="fill:none;stroke:#000000;stroke-width:30;stroke-linecap:round;stroke-linejoin:round;stroke-miterlimit:10;stroke-dasharray:none;stroke-opacity:1" id="path1984"></path></g><g id="g1986" transform="translate(75,236)"><path d="M 0,0 H 30" style="fill:none;stroke:#000000;stroke-width:30;stroke-linecap:round;stroke-linejoin:round;stroke-miterlimit:10;stroke-dasharray:none;stroke-opacity:1" id="path1988"></path></g><g id="g1990" transform="translate(347.583,301)"><path d="M 0,0 25.981,15" style="fill:none;stroke:#000000;stroke-width:30;stroke-linecap:round;stroke-linejoin:round;stroke-miterlimit:10;stroke-dasharray:none;stroke-opacity:1" id="path1992"></path></g><g id="g1994" transform="translate(96.4355,156)"><path d="M 0,0 25.981,15" style="fill:none;stroke:#000000;stroke-width:30;stroke-linecap:round;stroke-linejoin:round;stroke-miterlimit:10;stroke-dasharray:none;stroke-opacity:1" id="path1996"></path></g><g id="g1998" transform="translate(300,348.5835)"><path d="M 0,0 15,25.98" style="fill:none;stroke:#000000;stroke-width:30;stroke-linecap:round;stroke-linejoin:round;stroke-miterlimit:10;stroke-dasharray:none;stroke-opacity:1" id="path2000"></path></g><g id="g2002" transform="translate(155,97.436)"><path d="M 0,0 15,25.98" style="fill:none;stroke:#000000;stroke-width:30;stroke-linecap:round;stroke-linejoin:round;stroke-miterlimit:10;stroke-dasharray:none;stroke-opacity:1" id="path2004"></path></g><g id="g2006" transform="translate(235,366)"><path d="M 0,0 V 30" style="fill:none;stroke:#000000;stroke-width:30;stroke-linecap:round;stroke-linejoin:round;stroke-miterlimit:10;stroke-dasharray:none;stroke-opacity:1" id="path2008"></path></g><g id="g2010" transform="translate(235,76)"><path d="M 0,0 V 30" style="fill:none;stroke:#000000;stroke-width:30;stroke-linecap:round;stroke-linejoin:round;stroke-miterlimit:10;stroke-dasharray:none;stroke-opacity:1" id="path2012"></path></g><g id="g2014" transform="translate(170,348.5835)"><path d="M 0,0 -15,25.98" style="fill:none;stroke:#000000;stroke-width:30;stroke-linecap:round;stroke-linejoin:round;stroke-miterlimit:10;stroke-dasharray:none;stroke-opacity:1" id="path2016"></path></g><g id="g2018" transform="translate(315,97.436)"><path d="M 0,0 -15,25.98" style="fill:none;stroke:#000000;stroke-width:30;stroke-linecap:round;stroke-linejoin:round;stroke-miterlimit:10;stroke-dasharray:none;stroke-opacity:1" id="path2020"></path></g><g id="g2022" transform="translate(122.417,301)"><path d="M 0,0 -25.981,15" style="fill:none;stroke:#000000;stroke-width:30;stroke-linecap:round;stroke-linejoin:round;stroke-miterlimit:10;stroke-dasharray:none;stroke-opacity:1" id="path2024"></path></g><g id="g2026" transform="translate(373.5645,156)"><path d="M 0,0 -25.981,15" style="fill:none;stroke:#000000;stroke-width:30;stroke-linecap:round;stroke-linejoin:round;stroke-miterlimit:10;stroke-dasharray:none;stroke-opacity:1" id="path2028"></path></g><g id="g2030" transform="translate(235,236)"><path d="M 0,0 H 50" style="fill:none;stroke:#000000;stroke-width:30;stroke-linecap:round;stroke-linejoin:round;stroke-miterlimit:10;stroke-dasharray:none;stroke-opacity:1" id="path2032"></path></g><g id="g2034" transform="translate(235,236)"><path d="M 0,0 V 70" style="fill:none;stroke:#000000;stroke-width:30;stroke-linecap:round;stroke-linejoin:round;stroke-miterlimit:10;stroke-dasharray:none;stroke-opacity:1" id="path2036"></path></g><g id="g2038" transform="translate(470,236)"><path d="m 0,0 c 0,8.284 -6.716,15 -15,15 -8.284,0 -15,-6.716 -15,-15 0,-8.284 6.716,-15 15,-15 8.284,0 15,6.716 15,15" style="fill:#000000;fill-opacity:1;fill-rule:nonzero;stroke:none" id="path2040"></path></g><g id="g2042" transform="translate(461.9932,175.1772)"><path d="m 0,0 c 2.144,8.002 -2.604,16.227 -10.607,18.371 -8.002,2.145 -16.227,-2.604 -18.372,-10.606 -2.143,-8.002 2.606,-16.227 10.608,-18.371 C -10.369,-12.75 -2.145,-8.002 0,0" style="fill:#000000;fill-opacity:1;fill-rule:nonzero;stroke:none" id="path2044"></path></g><g id="g2046" transform="translate(438.5166,118.5)"><path d="m 0,0 c 4.142,7.174 1.684,16.348 -5.491,20.49 -7.174,4.142 -16.348,1.684 -20.49,-5.49 -4.142,-7.175 -1.684,-16.349 5.49,-20.491 C -13.316,-9.633 -4.143,-7.175 0,0" style="fill:#000000;fill-opacity:1;fill-rule:nonzero;stroke:none" id="path2048"></path></g><g id="g2050" transform="translate(401.1699,69.8296)"><path d="m 0,0 c 5.858,5.858 5.858,15.355 0,21.213 -5.857,5.858 -15.355,5.858 -21.213,0 C -27.07,15.355 -27.07,5.858 -21.213,0 -15.355,-5.858 -5.857,-5.858 0,0" style="fill:#000000;fill-opacity:1;fill-rule:nonzero;stroke:none" id="path2052"></path></g><g id="g2054" transform="translate(352.5,32.4839)"><path d="M 0,0 C 7.175,4.142 9.633,13.316 5.49,20.49 1.349,27.665 -7.825,30.123 -15,25.98 -22.174,21.838 -24.633,12.665 -20.49,5.49 -16.349,-1.684 -7.175,-4.142 0,0" style="fill:#000000;fill-opacity:1;fill-rule:nonzero;stroke:none" id="path2056"></path></g><g id="g2058" transform="translate(295.8223,9.0073)"><path d="M 0,0 C 8.002,2.144 12.751,10.369 10.606,18.371 8.463,26.373 0.237,31.122 -7.765,28.978 -15.767,26.833 -20.515,18.608 -18.371,10.606 -16.227,2.604 -8.002,-2.145 0,0" style="fill:#000000;fill-opacity:1;fill-rule:nonzero;stroke:none" id="path2060"></path></g></g></g></g></svg>