<svg xmlns="http://www.w3.org/2000/svg" id="Icon" height="512" viewBox="0 0 64 64" width="512"><path d="m58.0293 53.3184-5.3076-5.3084a3.0807 3.0807 0 0 0 -3.8767-.2957l-2.7177-2.7177a10.23 10.23 0 0 0 -.6712-13.7073l-.0206-.0186v-24.2707a3.0033 3.0033 0 0 0 -3-3h-34.5a3.0033 3.0033 0 0 0 -3 3v50a3.0033 3.0033 0 0 0 3 3h34.5a3.0033 3.0033 0 0 0 3-3v-9.8672l1.9927 1.9926a3 3 0 0 0 .2974 3.88l5.3086 5.3086a3.5321 3.5321 0 1 0 4.9951-4.9951zm-13.9873-8.9932a8.2144 8.2144 0 1 1 0-11.6221 8.25 8.25 0 0 1 0 11.6221zm-1.6065 13.6748h-34.5a1.0007 1.0007 0 0 1 -1-1v-50a1.0007 1.0007 0 0 1 1-1h34.5a1.0006 1.0006 0 0 1 1 1v22.7344a10.1817 10.1817 0 0 0 -15.0943 6.2656h-16.6156a1 1 0 0 0 0 2h16.3165a10.1946 10.1946 0 0 0 15.3934 9.294v9.706a1.0006 1.0006 0 0 1 -1 1zm14.18-1.1111a1.5089 1.5089 0 0 1 -2.167 0l-5.3076-5.4328a1.041 1.041 0 0 1 -.001-1.4471l.753-.7706a.9882.9882 0 0 1 1.414 0l5.3086 5.4328a1.6009 1.6009 0 0 1 -.0003 2.2177z"></path><path d="m22.6465 46h-10.9209a1 1 0 0 0 0 2h10.9209a1 1 0 1 0 0-2z"></path><path d="m11.7256 28h14.9209a1 1 0 1 0 0-2h-14.9209a1 1 0 0 0 0 2z"></path><path d="m11.7256 18h26.9209a1 1 0 0 0 0-2h-26.9209a1 1 0 0 0 0 2z"></path></svg>