<svg xmlns="http://www.w3.org/2000/svg" id="Icons" viewBox="0 0 60 60" width="512" height="512"><path d="M1.83,60H57a1,1,0,0,0,1-.917l1.911-22.918A2,2,0,0,0,57.913,34H38.92a2.011,2.011,0,0,0-1.992,1.834l-.191,2.291A11.563,11.563,0,0,0,28.83,35h-.279A5.241,5.241,0,0,0,26,33.235V32.162a11.16,11.16,0,0,0,4.909-8.479,3.768,3.768,0,0,0,2.231-1.955A10.31,10.31,0,0,0,34,16.59V14.269A14.152,14.152,0,0,0,20,0,14.152,14.152,0,0,0,6,14.269V16.59a10.3,10.3,0,0,0,.864,5.144,3.749,3.749,0,0,0,2.227,1.949A11.164,11.164,0,0,0,14,32.162v1.073A5.241,5.241,0,0,0,11.449,35H11.17C5.011,35,0,39.76,0,45.61V58.17A1.832,1.832,0,0,0,1.83,60ZM20,38.354a6.472,6.472,0,0,1,2.445.834L21.323,42H18.677l-1.121-2.8A6.578,6.578,0,0,1,20,38.354ZM18.922,44h2.156l1.141,14H17.781Zm4.094-.846.9-2.253a3.243,3.243,0,0,1,.113.341,1,1,0,0,0,1.462.629,7.5,7.5,0,0,0,1.438-1.133c-.242,6.029-1.076,12.976-2.807,16ZM15.4,41.919a1,1,0,0,0,.575-.677,3.243,3.243,0,0,1,.113-.341l.9,2.253L15.859,56.963c-1.672-2.708-2.552-9.761-2.794-16.231a7.468,7.468,0,0,0,1.443,1.139,1,1,0,0,0,.887.048ZM35.08,58H31V55h4.33ZM57.914,36,56.08,58H37.087L38.92,36ZM36.505,40.905,35.5,53H31a2,2,0,0,0-2,2v3H25.663c1.352-2.163,2.29-5.905,2.843-11.328.408-4.008.483-7.88.494-9.662A9.375,9.375,0,0,1,36.505,40.905Zm-9.512-4.653a4.773,4.773,0,0,1-1.562,3.163,5.659,5.659,0,0,0-2.294-2.137,6.791,6.791,0,0,0,2.356-2.1A3.052,3.052,0,0,1,26.993,36.252ZM20,2A12.134,12.134,0,0,1,31.983,13.934a2.457,2.457,0,0,0-1.181-.008c-.852-3.467-4.26-5.243-6.378-5.773a2.535,2.535,0,0,0-2.055.329c-2.824,1.916-8.217,2.82-10.958,2.939A2.55,2.55,0,0,0,9,13.885a2.455,2.455,0,0,0-.985.04A12.134,12.134,0,0,1,20,2ZM11.078,23.432A1.8,1.8,0,0,0,9.79,21.8a1.734,1.734,0,0,1-1.131-.951A8.46,8.46,0,0,1,8,16.59a.779.779,0,0,1,.3-.625.518.518,0,0,1,.309-.112.464.464,0,0,1,.125.017.561.561,0,0,1,.282.289A1,1,0,0,0,11,16V13.99a.555.555,0,0,1,.5-.571c3.073-.134,8.8-1.118,11.981-3.276a.557.557,0,0,1,.443-.053C24.134,10.142,29,11.407,29,15.6V16a1,1,0,0,0,1.987.159.555.555,0,0,1,.28-.288.487.487,0,0,1,.436.094.779.779,0,0,1,.3.625,8.452,8.452,0,0,1-.656,4.256,1.748,1.748,0,0,1-1.155.964,1.791,1.791,0,0,0-1.267,1.62A9.037,9.037,0,0,1,20,32,9.037,9.037,0,0,1,11.078,23.432ZM20,34a10.7,10.7,0,0,0,4-.775v.564c-.227.445-1.175,1.908-4,2.533-2.837-.627-3.782-2.1-4-2.53v-.567A10.7,10.7,0,0,0,20,34Zm-5.493,1.174a6.791,6.791,0,0,0,2.356,2.1,5.669,5.669,0,0,0-2.294,2.136,4.766,4.766,0,0,1-1.562-3.162A3.057,3.057,0,0,1,14.507,35.174ZM2,45.61a8.9,8.9,0,0,1,9-8.6c.01,1.828.083,5.861.494,9.971.53,5.3,1.425,8.939,2.709,11.021H2Z"></path><path d="M47.471,49a4.713,4.713,0,0,0,4.513-3.826,3.6,3.6,0,0,0-.736-2.954A3.474,3.474,0,0,0,48.529,41a4.713,4.713,0,0,0-4.513,3.826,3.6,3.6,0,0,0,.736,2.954A3.474,3.474,0,0,0,47.471,49Zm-1.487-3.826A2.738,2.738,0,0,1,48.529,43a1.513,1.513,0,0,1,1.187.505,1.6,1.6,0,0,1,.3,1.321A2.738,2.738,0,0,1,47.471,47a1.513,1.513,0,0,1-1.187-.505A1.6,1.6,0,0,1,45.984,45.174Z"></path><path d="M58,0H38a2,2,0,0,0-2,2V20a2,2,0,0,0,2,2h3.757l4.121,4.113a2.973,2.973,0,0,0,4.238,0L54.243,22H58a2,2,0,0,0,2-2V2A2,2,0,0,0,58,0Zm0,20H53.83a1,1,0,0,0-.706.292L48.7,24.707a.993.993,0,0,1-1.4,0l-4.42-4.41A1,1,0,0,0,42.17,20H38V2L58,2Z"></path><path d="M41,18H55a1,1,0,0,0,0-2H54V10a1,1,0,0,0-2,0v6H50V8a1,1,0,0,0-2,0v8H46V12a1,1,0,0,0-2,0v4H42V5a1,1,0,0,0-2,0V17A1,1,0,0,0,41,18Z"></path><path d="M49,51H45a1,1,0,0,0,0,2h4a1,1,0,0,0,0-2Z"></path></svg>