<svg xmlns="http://www.w3.org/2000/svg" id="Layer_1" height="512" viewBox="0 0 512 512" width="512" data-name="Layer 1"><path d="m436.346 88.318a8 8 0 0 0 -10.928-2.928l-78.547 45.349a7.932 7.932 0 0 0 -3.987 6.661l-98.515-1.044a44.655 44.655 0 0 0 -35.669 16.364l-11.961 14.2c-.1-.058-.206-.123-.315-.177l-33.341-16.615 4.976-8.619a8 8 0 0 0 -2.928-10.928l-78.549-45.349a8 8 0 0 0 -10.928 2.929l-74.582 129.18a8 8 0 0 0 2.928 10.929l78.547 45.348a8 8 0 0 0 10.928-2.928l.815-1.411 9.306 5.012a31.274 31.274 0 0 0 1.7 42.315 30.93 30.93 0 0 0 15.89 8.512 31.2 31.2 0 0 0 28.465 44.058 31.856 31.856 0 0 0 5.2-.435 31.157 31.157 0 0 0 31.187 29.767 31.856 31.856 0 0 0 5.2-.435 31.247 31.247 0 0 0 53.275 20.646l7.379-7.38a31.108 31.108 0 0 0 46.443-28.086 30.418 30.418 0 0 0 19.57-3.538c10.479-5.7 17.467-16.485 17.942-27.575a31.194 31.194 0 0 0 38.945-30.723 30.827 30.827 0 0 0 7.452.93 31.644 31.644 0 0 0 7.419-.888 31.244 31.244 0 0 0 14.377-52.809l9.524-6.37 4.946 8.567a7.995 7.995 0 0 0 10.928 2.927l78.562-45.348a8 8 0 0 0 2.928-10.928zm-417.418 130.095 66.582-115.324 64.69 37.349-66.581 115.324zm97.686 65.331 12.74-12.739a15.234 15.234 0 0 1 21.6 21.489l-12.854 12.858a15.235 15.235 0 0 1 -21.483-21.608zm22.268 65a15.254 15.254 0 0 1 0-21.548l10.482-10.481c.037-.037.075-.071.112-.108.018-.017.033-.037.051-.055l12.628-12.629c.02-.019.041-.035.061-.055.039-.038.074-.079.112-.118l10.472-10.478a15.236 15.236 0 0 1 21.548 21.547l-33.918 33.922a15.254 15.254 0 0 1 -21.548.001zm36.392 29.332a15.255 15.255 0 0 1 0-21.544l26.86-26.86a15.237 15.237 0 0 1 21.548 21.548l-3.53 3.529-23.331 23.331a15.252 15.252 0 0 1 -21.547-.006zm47.166 33.764a15.21 15.21 0 0 1 -10.774-25.983l.009-.009 19.791-19.791a15.236 15.236 0 0 1 21.548 21.543l-19.8 19.8a15.12 15.12 0 0 1 -10.774 4.44zm57.76-19.766a15.248 15.248 0 0 1 -16 6.972l.128-.128a31.018 31.018 0 0 0 9.121-22.088 31.609 31.609 0 0 0 -.839-7.233l5.275 3.7a15.428 15.428 0 0 1 2.315 18.777zm115.158-93.007a15.306 15.306 0 0 1 -20.948 5.052l-14.507-8.869-.02-.014-.011-.006-64.024-39.144a8 8 0 1 0 -8.346 13.65l64.039 39.154a15.237 15.237 0 0 1 -15.9 26l-57.956-35.44a8 8 0 0 0 -8.346 13.651l42.709 26.112.009.007c5.321 3.254 7.96 7.3 7.841 12.022-.138 5.481-4.1 11.409-9.627 14.419a13.923 13.923 0 0 1 -14.531-.176l-8.358-5.074-28.89-20.242a8 8 0 0 0 -12.542 5.668c-.752-.089-1.5-.159-2.261-.194a31.182 31.182 0 0 0 -29.338-36.391 31.859 31.859 0 0 0 .435-5.206 31.019 31.019 0 0 0 -9.12-22.087 31.29 31.29 0 0 0 -34.937-6.378 31.216 31.216 0 0 0 -52.688-15.89l-2.734 2.734-13.013-7.008 52.772-91.4 31.079 15.483-21.635 25.686a12.819 12.819 0 0 0 -2.151 13.139c.8 2.031 1.633 3.959 2.475 5.731a33 33 0 0 0 54.25 8l21.4-23.607a22.742 22.742 0 0 1 29.037-4.174l120.789 73.845a15.306 15.306 0 0 1 5.051 20.947zm-5.651-40.067-111.837-68.379a38.559 38.559 0 0 0 -49.236 7.077l-21.4 23.607a17 17 0 0 1 -27.946-4.119c-.459-.965-.917-2-1.37-3.078l43.022-51.081a28.794 28.794 0 0 1 23.26-10.672l106.567 1.129 54.8 94.91zm38.674-3.08-66.581-115.32 64.691-37.349 66.581 115.319z"></path></svg>