<svg xmlns="http://www.w3.org/2000/svg" xmlns:svg="http://www.w3.org/2000/svg" id="svg1386" xml:space="preserve" width="682.66669" height="682.66669" viewBox="0 0 682.66669 682.66669"><defs id="defs1390"><clipPath clipPathUnits="userSpaceOnUse" id="clipPath1404"><path d="M 0,512 H 512 V 0 H 0 Z" id="path1402"></path></clipPath></defs><g id="g1392" transform="matrix(1.3333333,0,0,-1.3333333,0,682.66667)"><g id="g1394" transform="translate(398,416.1309)"><path d="M 0,0 V -166.631" style="fill:none;stroke:#000000;stroke-width:15;stroke-linecap:round;stroke-linejoin:round;stroke-miterlimit:10;stroke-dasharray:none;stroke-opacity:1" id="path1396"></path></g><g id="g1398"><g id="g1400" clip-path="url(#clipPath1404)"><g id="g1406" transform="translate(114,443.6299)"><path d="m 0,0 v 30.87 c 0,16.57 13.43,30 30,30 h 224 c 16.57,0 30,-13.43 30,-30 V 4.501" style="fill:none;stroke:#000000;stroke-width:15;stroke-linecap:round;stroke-linejoin:round;stroke-miterlimit:10;stroke-dasharray:none;stroke-opacity:1" id="path1408"></path></g><g id="g1410" transform="translate(114,160.5034)"><path d="M 0,0 V 170.106" style="fill:none;stroke:#000000;stroke-width:15;stroke-linecap:round;stroke-linejoin:round;stroke-miterlimit:10;stroke-dasharray:none;stroke-opacity:1" id="path1412"></path></g><g id="g1414" transform="translate(398,136.48)"><path d="m 0,0 v -98.98 c 0,-16.57 -13.43,-30 -30,-30 h -224 c -16.57,0 -30,13.43 -30,30 v 90.259" style="fill:none;stroke:#000000;stroke-width:15;stroke-linecap:round;stroke-linejoin:round;stroke-miterlimit:10;stroke-dasharray:none;stroke-opacity:1" id="path1416"></path></g><g id="g1418" transform="translate(209.5986,40.5)"><path d="M 0,0 H 92.803" style="fill:none;stroke:#000000;stroke-width:15;stroke-linecap:round;stroke-linejoin:round;stroke-miterlimit:10;stroke-dasharray:none;stroke-opacity:1" id="path1420"></path></g><g id="g1422" transform="translate(321.8516,464.5)"><path d="m 0,0 h -132 c -5.523,0 -10,4.477 -10,10 V 40 H 10 V 10 C 10,4.477 5.522,0 0,0 Z" style="fill:none;stroke:#000000;stroke-width:15;stroke-linecap:round;stroke-linejoin:round;stroke-miterlimit:10;stroke-dasharray:none;stroke-opacity:1" id="path1424"></path></g><g id="g1426" transform="translate(114,72)"><path d="M 0,0 H 284" style="fill:none;stroke:#000000;stroke-width:15;stroke-linecap:round;stroke-linejoin:round;stroke-miterlimit:10;stroke-dasharray:none;stroke-opacity:1" id="path1428"></path></g><g id="g1430" transform="translate(157.9263,408.6211)"><path d="m 0,0 v -43.006 c 0,-19.333 -15.67,-35.005 -35,-35.005 h -41.044 v -31.982 c 0,-0.964 -1.228,-1.37 -1.803,-0.596 l -24.197,32.578 H -115 c -19.33,0 -35,15.672 -35,35.005 V 0 c 0,19.333 15.67,35.005 35,35.005 h 80 C -15.67,35.005 0,19.333 0,0 Z" style="fill:none;stroke:#000000;stroke-width:15;stroke-linecap:round;stroke-linejoin:round;stroke-miterlimit:10;stroke-dasharray:none;stroke-opacity:1" id="path1432"></path></g><g id="g1434" transform="translate(354.5,214.4951)"><path d="m 0,0 v -43.006 c 0,-19.333 15.67,-35.006 35,-35.006 h 41.043 v -31.981 c 0,-0.964 1.229,-1.37 1.803,-0.596 l 24.197,32.577 H 115 c 19.33,0 35,15.673 35,35.006 V 0 c 0,19.333 -15.67,35.005 -35,35.005 H 35 C 15.67,35.005 0,19.333 0,0 Z" style="fill:none;stroke:#000000;stroke-width:15;stroke-linecap:round;stroke-linejoin:round;stroke-miterlimit:10;stroke-dasharray:none;stroke-opacity:1" id="path1436"></path></g><g id="g1438" transform="translate(180.1299,287.04)"><path d="m 0,0 c -8.43,-0.35 -16.16,-6.93 -16.16,-18.76 0,-12.17 8.18,-25.49 16.89,-25.49 3.36,0 6.48,1.51 9.04,4.06" style="fill:none;stroke:#000000;stroke-width:15;stroke-linecap:round;stroke-linejoin:round;stroke-miterlimit:10;stroke-dasharray:none;stroke-opacity:1" id="path1440"></path></g><g id="g1442" transform="translate(331.8701,287.04)"><path d="m 0,0 c 8.43,-0.35 16.16,-6.93 16.16,-18.76 0,-12.17 -8.18,-25.49 -16.89,-25.49 -3.36,0 -6.48,1.51 -9.04,4.06" style="fill:none;stroke:#000000;stroke-width:15;stroke-linecap:round;stroke-linejoin:round;stroke-miterlimit:10;stroke-dasharray:none;stroke-opacity:1" id="path1444"></path></g><g id="g1446" transform="translate(271.02,192.73)"><path d="M 0,0 V -27.447 H -30 V -0.005" style="fill:none;stroke:#000000;stroke-width:15;stroke-linecap:round;stroke-linejoin:round;stroke-miterlimit:10;stroke-dasharray:none;stroke-opacity:1" id="path1448"></path></g><g id="g1450" transform="translate(323.0298,269.2202)"><path d="m 0,0 v -11.19 c 0,-37 -29.99,-66.99 -66.99,-66.99 h -0.08 c -37,0 -66.99,29.99 -66.99,66.99 V 0" style="fill:none;stroke:#000000;stroke-width:15;stroke-linecap:round;stroke-linejoin:round;stroke-miterlimit:10;stroke-dasharray:none;stroke-opacity:1" id="path1452"></path></g><g id="g1454" transform="translate(314.6333,365.6069)"><path d="m 0,0 c 12.688,-9.807 17.951,-23.311 20.616,-37.139 4.208,-21.823 -3.377,-41.424 -3.377,-41.424 -8.788,-1.59 -8.838,-17.821 -8.838,-17.821 0,0 -7.215,-3.039 -8.752,1.161 -12.94,35.368 -62.804,29.976 -86.313,57.929 -11.718,13.934 -24.169,-7.982 -25.057,-18.727 -0.893,-10.737 -2.861,-35.391 -5.195,-39.202 -2.34,-3.811 -8.751,-1.161 -8.751,-1.161 0,0 -0.05,16.231 -8.839,17.821 0,0 -7.585,19.601 -3.377,41.424 5.146,26.702 19.98,52.194 79.25,52.194 11.321,0 21.022,-0.93 29.343,-2.622" style="fill:none;stroke:#000000;stroke-width:15;stroke-linecap:round;stroke-linejoin:round;stroke-miterlimit:10;stroke-dasharray:none;stroke-opacity:1" id="path1456"></path></g><g id="g1458" transform="translate(220,165.2832)"><path d="m 0,0 h 72 c 31.537,0 57.103,-25.566 57.103,-57.103 v -36 H -57.103 v 36 C -57.103,-25.566 -31.537,0 0,0 Z" style="fill:none;stroke:#000000;stroke-width:15;stroke-linecap:round;stroke-linejoin:round;stroke-miterlimit:10;stroke-dasharray:none;stroke-opacity:1" id="path1460"></path></g><g id="g1462" transform="translate(256.022,104.8701)"><path d="M 0,0 V 0 C -8.284,0 -15,6.716 -15,15 V 60.413 H 15 V 15 C 15,6.716 8.284,0 0,0 Z" style="fill:none;stroke:#000000;stroke-width:15;stroke-linecap:round;stroke-linejoin:round;stroke-miterlimit:10;stroke-dasharray:none;stroke-opacity:1" id="path1464"></path></g><g id="g1466" transform="translate(68.2222,404.374)"><path d="m 0,0 v -34.512 c 0,-3.672 3.938,-5.947 7.05,-4.074 l 28.664,17.256 c 3.048,1.835 3.048,6.312 0,8.147 L 7.05,4.074 C 3.938,5.947 0,3.671 0,0 Z" style="fill:none;stroke:#000000;stroke-width:15;stroke-linecap:round;stroke-linejoin:round;stroke-miterlimit:10;stroke-dasharray:none;stroke-opacity:1" id="path1468"></path></g><g id="g1470" transform="translate(400,212)"><path d="M 0,0 H 62" style="fill:none;stroke:#000000;stroke-width:15;stroke-linecap:round;stroke-linejoin:round;stroke-miterlimit:10;stroke-dasharray:none;stroke-opacity:1" id="path1472"></path></g><g id="g1474" transform="translate(400,182)"><path d="M 0,0 H 62" style="fill:none;stroke:#000000;stroke-width:15;stroke-linecap:round;stroke-linejoin:round;stroke-miterlimit:10;stroke-dasharray:none;stroke-opacity:1" id="path1476"></path></g></g></g></g></svg>